<svg xmlns="http://www.w3.org/2000/svg" version="1.2" viewBox="0 0 600 400"><path fill="none" stroke="#00f" stroke-dasharray="22.6772, 22.6772" stroke-linecap="round" stroke-width="3.78" d="M18.426 340.68a281.57 281.57 0 0 1 281.57-281.57 281.57 281.57 0 0 1 281.57 281.57" style="paint-order:stroke fill markers"/><path fill="gray" stroke="#000" d="m279.1 110.81 20 50 30-30 30 30h-100z"/><path fill="#fff" stroke="#000" stroke-linecap="round" stroke-width="3.78" d="M112.91 340.68A187.09 187.09 0 0 1 300 153.59a187.09 187.09 0 0 1 187.09 187.09" style="paint-order:stroke fill markers"/><g stroke="#0f0" transform="rotate(-30 325.54 -400.46)"><path stroke-width="2.188" d="M-45.966 24.501v18.232"/><circle cx="-45.966" cy="23.043" r="2.188" fill="#fff" stroke-width=".729"/><g fill="none" stroke-width="1.458"><path d="M-53.805 37.72a15.68 15.68 0 0 1-7.84-13.578 15.68 15.68 0 0 1 15.679-15.68 15.68 15.68 0 0 1 15.68 15.68 15.68 15.68 0 0 1-7.841 13.579"/><path d="M-51.981 34.319a12.03 12.03 0 0 1-6.018-10.422 12.033 12.033 0 0 1 12.033-12.033 12.033 12.033 0 0 1 12.033 12.033 12.03 12.03 0 0 1-6.017 10.421"/><path d="M-50.158 30.917a8.39 8.39 0 0 1-4.195-7.264 8.387 8.387 0 0 1 8.387-8.387 8.387 8.387 0 0 1 8.386 8.387 8.39 8.39 0 0 1-4.194 7.263"/></g></g><g stroke="red" transform="rotate(-45 257.4 -141.14)"><path stroke-width="2.188" d="M-45.966 24.501v18.232"/><circle cx="-45.966" cy="23.043" r="2.188" fill="#fff" stroke-width=".729"/><g fill="none" stroke-width="1.458"><path d="M-53.805 37.72a15.68 15.68 0 0 1-7.84-13.578 15.68 15.68 0 0 1 15.679-15.68 15.68 15.68 0 0 1 15.68 15.68 15.68 15.68 0 0 1-7.841 13.579"/><path d="M-51.981 34.319a12.03 12.03 0 0 1-6.018-10.422 12.033 12.033 0 0 1 12.033-12.033 12.033 12.033 0 0 1 12.033 12.033 12.03 12.03 0 0 1-6.017 10.421"/><path d="M-50.158 30.917a8.39 8.39 0 0 1-4.195-7.264 8.387 8.387 0 0 1 8.387-8.387 8.387 8.387 0 0 1 8.386 8.387 8.39 8.39 0 0 1-4.194 7.263"/></g></g><g stroke="#c400ff" transform="rotate(30 -89.673 961.84)"><path stroke-width="2.188" d="M-45.966 24.501v18.232"/><circle cx="-45.966" cy="23.043" r="2.188" fill="#fff" stroke-width=".729"/><g fill="none" stroke-width="1.458"><path d="M-53.805 37.72a15.68 15.68 0 0 1-7.84-13.578 15.68 15.68 0 0 1 15.679-15.68 15.68 15.68 0 0 1 15.68 15.68 15.68 15.68 0 0 1-7.841 13.579"/><path d="M-51.981 34.319a12.03 12.03 0 0 1-6.018-10.422 12.033 12.033 0 0 1 12.033-12.033 12.033 12.033 0 0 1 12.033 12.033 12.03 12.03 0 0 1-6.017 10.421"/><path d="M-50.158 30.917a8.39 8.39 0 0 1-4.195-7.264 8.387 8.387 0 0 1 8.387-8.387 8.387 8.387 0 0 1 8.386 8.387 8.39 8.39 0 0 1-4.194 7.263"/></g></g><path fill="none" stroke="#000" stroke-dasharray="6.00945, 6.00945" stroke-width="1.002" d="M215.56 152.06S277.254 56 324.6 60.183c47.268 4.177 91.09 109.4 91.09 109.4"/><text xml:space="preserve" x="249.5" y="342.17" font-family="sans-serif" font-size="40" letter-spacing="0" style="line-height:1.25" word-spacing="0"><tspan x="249.5" y="342.17">Earth</tspan></text></svg>