<svg xmlns="http://www.w3.org/2000/svg" width="210mm" height="150mm" viewBox="0 0 210 150"><defs><marker id="c" markerHeight="1" markerWidth="1" orient="auto-start-reverse" overflow="visible" preserveAspectRatio="xMidYMid" viewBox="0 0 1 1"><path fill="context-stroke" fill-rule="evenodd" stroke="context-stroke" stroke-width=".5pt" d="M2.885 0-1.44 2.5v-5Z"/></marker><marker id="e" markerHeight="1" markerWidth="1" orient="auto-start-reverse" overflow="visible" preserveAspectRatio="xMidYMid" viewBox="0 0 1 1"><path fill="context-stroke" fill-rule="evenodd" stroke="context-stroke" stroke-width=".5pt" d="M2.885 0-1.44 2.5v-5Z"/></marker><marker id="f" markerHeight="1" markerWidth="1" orient="auto-start-reverse" overflow="visible" preserveAspectRatio="xMidYMid" viewBox="0 0 1 1"><path fill="context-stroke" fill-rule="evenodd" stroke="context-stroke" stroke-width=".5pt" d="M2.885 0-1.44 2.5v-5Z"/></marker><marker id="b" markerHeight="1" markerWidth="1" orient="auto-start-reverse" overflow="visible" preserveAspectRatio="xMidYMid" viewBox="0 0 1 1"><path fill="context-stroke" fill-rule="evenodd" stroke="context-stroke" stroke-width=".5pt" d="M2.885 0-1.44 2.5v-5Z"/></marker><marker id="a" markerHeight="1" markerWidth="1" orient="auto-start-reverse" overflow="visible" preserveAspectRatio="xMidYMid" viewBox="0 0 1 1"><path fill="context-stroke" fill-rule="evenodd" stroke="context-stroke" stroke-width=".5pt" d="M2.885 0-1.44 2.5v-5Z"/></marker></defs><g fill="none" stroke-width=".75"><g stroke="#000"><path marker-end="url(#a)" marker-start="url(#b)" d="M10.58 81.567v113.18" transform="translate(-.356 -61.294)"/><path d="M58.586 53.878v-40m55.301 40v-40"/><path marker-end="url(#c)" marker-start="url(#e)" d="m61.681 33.986 49.11-.216"/><path marker-end="url(#f)" d="M10.58 137.78h194.03" transform="translate(-.356 -61.294)"/></g><path stroke="#0f0" d="M10.224 76.486s10.515-22.6 20.727-22.61c10.211-.012 20.726 22.51 20.726 22.51s10.465 22.721 20.726 22.71 20.726-22.81 20.726-22.81"/><path stroke="#0f0" d="M93.036 76.486s10.514-22.6 20.726-22.61c10.212-.012 20.726 22.51 20.726 22.51s10.465 22.721 20.726 22.71 20.727-22.81 20.727-22.81"/></g><g stroke-width=".265" font-family="sans-serif" letter-spacing="0" text-anchor="middle" word-spacing="0"><text xml:space="preserve" x="193.146" y="145.521" font-size="6.35" style="line-height:1.25" transform="translate(-.356 -61.294)"><tspan x="193.146" y="145.521" font-family="&quot;DejaVu Serif&quot;" font-weight="400">Time</tspan></text><text xml:space="preserve" x="-137.407" y="8.261" font-size="6.35" style="line-height:1.25" transform="rotate(-90 -30.825 -30.469)"><tspan x="-137.407" y="8.261" font-family="&quot;DejaVu Serif&quot;" font-weight="400">Amplitude</tspan></text><text xml:space="preserve" x="86.277" y="32.416" font-size="3.528" style="line-height:1.25"><tspan x="86.277" y="32.416"><tspan x="86.277" y="32.416" font-family="'DejaVu Serif'" font-weight="400">Phase shift</tspan></tspan></text></g><path fill="none" stroke="#f0f" stroke-width=".75" d="M37.741 76.489s10.515-22.6 20.727-22.61c10.211-.012 20.726 22.51 20.726 22.51S89.659 99.11 99.92 99.099s20.726-22.81 20.726-22.81"/><path fill="none" stroke="#f0f" stroke-width=".75" d="M120.55 76.489s10.514-22.6 20.726-22.61c10.212-.012 20.726 22.51 20.726 22.51s10.465 22.721 20.726 22.71 20.727-22.81 20.727-22.81"/></svg>