<svg xmlns="http://www.w3.org/2000/svg" width="210mm" height="150mm" viewBox="0 0 210 150"><defs><marker id="c" markerHeight="1" markerWidth="1" orient="auto-start-reverse" preserveAspectRatio="xMidYMid" refX="0" refY="0" style="overflow:visible" viewBox="0 0 1 1"><path d="m5.77 0-8.65 5V-5Z" style="fill:context-stroke;fill-rule:evenodd;stroke:context-stroke;stroke-width:1pt" transform="scale(.5)"/></marker><marker id="a" markerHeight="1" markerWidth="1" orient="auto-start-reverse" preserveAspectRatio="xMidYMid" refX="0" refY="0" style="overflow:visible" viewBox="0 0 1 1"><path d="m5.77 0-8.65 5V-5Z" style="fill:context-stroke;fill-rule:evenodd;stroke:context-stroke;stroke-width:1pt" transform="scale(.5)"/></marker><marker id="b" markerHeight="1" markerWidth="1" orient="auto-start-reverse" preserveAspectRatio="xMidYMid" refX="0" refY="0" style="overflow:visible" viewBox="0 0 1 1"><path d="m5.77 0-8.65 5V-5Z" style="fill:context-stroke;fill-rule:evenodd;stroke:context-stroke;stroke-width:1pt" transform="scale(.5)"/></marker></defs><path d="M10.58 81.567v113.185" style="fill:none;stroke:#000;stroke-width:.75;stroke-linecap:butt;stroke-linejoin:miter;stroke-dasharray:none;stroke-opacity:1;marker-start:url(#a);marker-end:url(#b)" transform="translate(-.356 -61.294)"/><path d="M10.58 137.783h194.033" style="display:inline;fill:none;stroke:#000;stroke-width:.75;stroke-linecap:butt;stroke-linejoin:miter;stroke-dasharray:none;stroke-opacity:1;marker-end:url(#c)" transform="translate(-.356 -61.294)"/><g style="stroke-width:1.41429"><path d="M10.58 137.783s10.515-22.6 20.727-22.61c10.211-.012 20.726 22.51 20.726 22.51s10.465 22.721 20.726 22.71 20.726-22.81 20.726-22.81" style="fill:none;stroke:red;stroke-width:1.06072;stroke-linecap:butt;stroke-linejoin:miter;stroke-dasharray:none;stroke-opacity:1" transform="matrix(.49994 0 0 1 4.943 -61.294)"/><path d="M93.392 137.783s10.514-22.6 20.726-22.61c10.212-.012 20.726 22.51 20.726 22.51s10.465 22.721 20.726 22.71 20.727-22.81 20.727-22.81" style="fill:none;stroke:#00f;stroke-width:1.06072;stroke-linecap:butt;stroke-linejoin:miter;stroke-dasharray:none;stroke-opacity:1" transform="matrix(.49994 0 0 1 4.943 -61.294)"/></g><text xml:space="preserve" x="193.146" y="145.521" style="font-size:6.35px;line-height:1.25;font-family:sans-serif;text-align:center;letter-spacing:0;word-spacing:0;text-anchor:middle;stroke-width:.264583" transform="translate(-.356 -61.294)"><tspan x="193.146" y="145.521" style="font-style:normal;font-variant:normal;font-weight:400;font-stretch:normal;font-size:6.35px;font-family:&quot;DejaVu Serif&quot;;-inkscape-font-specification:&quot;DejaVu Serif&quot;;stroke-width:.264583">Time</tspan></text><text xml:space="preserve" x="-137.407" y="8.261" style="font-size:6.35px;line-height:1.25;font-family:sans-serif;text-align:center;letter-spacing:0;word-spacing:0;text-anchor:middle;stroke-width:.264583" transform="rotate(-90 -30.825 -30.469)"><tspan x="-137.407" y="8.261" style="font-style:normal;font-variant:normal;font-weight:400;font-stretch:normal;font-size:6.35px;font-family:&quot;DejaVu Serif&quot;;-inkscape-font-specification:&quot;DejaVu Serif&quot;;stroke-width:.264583">Amplitude</tspan></text><circle cx="10.224" cy="76.489" r="1.125" style="fill:#02ff00;fill-opacity:1;stroke:#000;stroke-width:.750001;stroke-linecap:round;stroke-opacity:0;paint-order:stroke fill markers"/><g style="stroke-width:1.41429"><path d="M10.58 137.783s10.515-22.6 20.727-22.61c10.211-.012 20.726 22.51 20.726 22.51s10.465 22.721 20.726 22.71 20.726-22.81 20.726-22.81" style="fill:none;stroke:red;stroke-width:1.06072;stroke-linecap:butt;stroke-linejoin:miter;stroke-dasharray:none;stroke-opacity:1" transform="matrix(.49994 0 0 1 87.792 -61.494)"/><path d="M93.392 137.783s10.514-22.6 20.726-22.61c10.212-.012 20.726 22.51 20.726 22.51s10.465 22.721 20.726 22.71 20.727-22.81 20.727-22.81" style="fill:none;stroke:#00f;stroke-width:1.06072;stroke-linecap:butt;stroke-linejoin:miter;stroke-dasharray:none;stroke-opacity:1" transform="matrix(.49994 0 0 1 87.792 -61.494)"/></g><circle cx="175.847" cy="76.489" r="1.125" style="fill:#02ff00;fill-opacity:1;stroke:#000;stroke-width:.750001;stroke-linecap:round;stroke-opacity:0;paint-order:stroke fill markers"/></svg>