<svg xmlns="http://www.w3.org/2000/svg" width="210mm" height="150mm" version="1.2" viewBox="0 0 210 150"><path fill="none" stroke="#00f" stroke-dasharray="22.6772, 22.6772" stroke-linecap="round" stroke-width="3.78" d="M18.426 340.68a281.57 281.57 0 0 1 281.57-281.57 281.57 281.57 0 0 1 281.57 281.57" style="paint-order:stroke fill markers" transform="translate(.082 5.052)scale(.34973)"/><path fill="gray" stroke="#000" stroke-width=".34973" d="m97.691 43.805 6.995 17.487L115.178 50.8l10.492 10.492H90.697z"/><path fill="#fff" stroke="#000" stroke-linecap="round" stroke-width="3.78" d="M112.91 340.68A187.09 187.09 0 0 1 300 153.59a187.09 187.09 0 0 1 187.09 187.09" style="paint-order:stroke fill markers" transform="translate(.082 5.052)scale(.34973)"/><g stroke="#0f0" transform="rotate(-30 123.319 -137.68)scale(.34973)"><path stroke-width="2.188" d="M-45.966 24.501v18.232"/><circle cx="-45.966" cy="23.043" r="2.188" fill="#fff" stroke-width=".729"/><g fill="none" stroke-width="1.458"><path d="M-53.805 37.72a15.68 15.68 0 0 1-7.84-13.578 15.68 15.68 0 0 1 15.679-15.68 15.68 15.68 0 0 1 15.68 15.68 15.68 15.68 0 0 1-7.841 13.579"/><path d="M-51.981 34.319a12.03 12.03 0 0 1-6.018-10.422 12.033 12.033 0 0 1 12.033-12.033 12.033 12.033 0 0 1 12.033 12.033 12.03 12.03 0 0 1-6.017 10.421"/><path d="M-50.158 30.917a8.39 8.39 0 0 1-4.195-7.264 8.387 8.387 0 0 1 8.387-8.387 8.387 8.387 0 0 1 8.386 8.387 8.39 8.39 0 0 1-4.194 7.263"/></g></g><g stroke="red" transform="rotate(-45 96.16 -46.934)scale(.34973)"><path stroke-width="2.188" d="M-45.966 24.501v18.232"/><circle cx="-45.966" cy="23.043" r="2.188" fill="#fff" stroke-width=".729"/><g fill="none" stroke-width="1.458"><path d="M-53.805 37.72a15.68 15.68 0 0 1-7.84-13.578 15.68 15.68 0 0 1 15.679-15.68 15.68 15.68 0 0 1 15.68 15.68 15.68 15.68 0 0 1-7.841 13.579"/><path d="M-51.981 34.319a12.03 12.03 0 0 1-6.018-10.422 12.033 12.033 0 0 1 12.033-12.033 12.033 12.033 0 0 1 12.033 12.033 12.03 12.03 0 0 1-6.017 10.421"/><path d="M-50.158 30.917a8.39 8.39 0 0 1-4.195-7.264 8.387 8.387 0 0 1 8.387-8.387 8.387 8.387 0 0 1 8.386 8.387 8.39 8.39 0 0 1-4.194 7.263"/></g></g><g stroke="#c400ff" transform="rotate(30 -40.747 339.063)scale(.34973)"><path stroke-width="2.188" d="M-45.966 24.501v18.232"/><circle cx="-45.966" cy="23.043" r="2.188" fill="#fff" stroke-width=".729"/><g fill="none" stroke-width="1.458"><path d="M-53.805 37.72a15.68 15.68 0 0 1-7.84-13.578 15.68 15.68 0 0 1 15.679-15.68 15.68 15.68 0 0 1 15.68 15.68 15.68 15.68 0 0 1-7.841 13.579"/><path d="M-51.981 34.319a12.03 12.03 0 0 1-6.018-10.422 12.033 12.033 0 0 1 12.033-12.033 12.033 12.033 0 0 1 12.033 12.033 12.03 12.03 0 0 1-6.017 10.421"/><path d="M-50.158 30.917a8.39 8.39 0 0 1-4.195-7.264 8.387 8.387 0 0 1 8.387-8.387 8.387 8.387 0 0 1 8.386 8.387 8.39 8.39 0 0 1-4.194 7.263"/></g></g><path fill="none" stroke="#000" stroke-dasharray="2.1016849485, 2.1016849485" stroke-width=".35042945999999997" d="M75.47 58.232S97.046 24.637 113.604 26.1c16.531 1.46 31.857 38.26 31.857 38.26"/><text xml:space="preserve" x="249.5" y="342.17" font-family="sans-serif" font-size="40" letter-spacing="0" style="line-height:1.25" transform="translate(.082 5.052)scale(.34973)" word-spacing="0"><tspan x="249.5" y="342.17">Earth</tspan></text></svg>