<svg xmlns="http://www.w3.org/2000/svg" width="48" height="48"><circle cx="24" cy="24" r="22.5" fill="#4caf50" stroke="#2e7d32" stroke-width="3"/><g transform="translate(69.966 -1.233)"><path stroke="#fff" stroke-width="2.188" d="M-45.966 24.501v18.232"/><circle cx="-45.966" cy="23.043" r="2.188" fill="#fff" style="fill:#fff;fill-opacity:1;stroke-width:.729271"/><path d="M-53.805 37.72a15.68 15.68 0 0 1-7.84-13.578 15.68 15.68 0 0 1 15.679-15.68 15.68 15.68 0 0 1 15.68 15.68 15.68 15.68 0 0 1-7.841 13.579" style="fill:none;stroke:#fff;stroke-width:1.45854;stroke-dasharray:none;stroke-opacity:1"/><path d="M-51.981 34.319a12.03 12.03 0 0 1-6.018-10.422 12.033 12.033 0 0 1 12.033-12.033 12.033 12.033 0 0 1 12.033 12.033 12.03 12.03 0 0 1-6.017 10.421" style="fill:none;stroke:#fff;stroke-width:1.45852;stroke-dasharray:none;stroke-opacity:1"/><path d="M-50.158 30.917a8.39 8.39 0 0 1-4.195-7.264 8.387 8.387 0 0 1 8.387-8.387 8.387 8.387 0 0 1 8.386 8.387 8.39 8.39 0 0 1-4.194 7.263" style="fill:none;stroke:#fff;stroke-width:1.45852;stroke-dasharray:none;stroke-opacity:1"/></g></svg>